<svg width="112" height="111" viewBox="0 0 112 111" fill="none" xmlns="http://www.w3.org/2000/svg">
<path d="M110.477 95.9666L88.6659 74.3541C87.6814 73.3786 86.3469 72.8366 84.9468 72.8366H81.381C87.4189 65.1845 91.0067 55.5596 91.0067 45.0893C91.0067 20.1818 70.6395 0 45.5033 0C20.3671 0 0 20.1818 0 45.0893C0 69.9969 20.3671 90.1787 45.5033 90.1787C56.0697 90.1787 65.7829 86.6236 73.5054 80.6406V84.174C73.5054 85.5614 74.0523 86.8837 75.0367 87.8592L96.8477 109.472C98.9041 111.509 102.229 111.509 104.264 109.472L110.455 103.337C112.511 101.299 112.511 98.0043 110.477 95.9666ZM45.5033 72.8366C30.0366 72.8366 17.5013 60.4371 17.5013 45.0893C17.5013 29.7633 30.0147 17.3421 45.5033 17.3421C60.9701 17.3421 73.5054 29.7416 73.5054 45.0893C73.5054 60.4154 60.992 72.8366 45.5033 72.8366Z" fill="white"/>
</svg>
